<mxfile host="app.diagrams.net" agent="Mozilla/5.0 (Windows NT 10.0; Win64; x64) AppleWebKit/537.36 (KHTML, like Gecko) Chrome/128.0.0.0 Safari/537.36" version="24.7.13">
  <diagram name="Page-1" id="e7e014a7-5840-1c2e-5031-d8a46d1fe8dd">
    <mxGraphModel dx="1722" dy="863" grid="1" gridSize="10" guides="1" tooltips="1" connect="1" arrows="1" fold="1" page="1" pageScale="1" pageWidth="1169" pageHeight="826" background="none" math="0" shadow="0">
      <root>
        <mxCell id="0" />
        <mxCell id="1" parent="0" />
        <mxCell id="s_FSHptF3gGW9Kq1OmkB-43" value="&lt;i&gt;Game&lt;/i&gt;" style="rounded=0;whiteSpace=wrap;html=1;" parent="1" vertex="1">
          <mxGeometry x="320" y="20" width="180" height="40" as="geometry" />
        </mxCell>
        <mxCell id="s_FSHptF3gGW9Kq1OmkB-44" value="- levels : Level* [10]&lt;div&gt;- currentLevel : Level* = null&lt;/div&gt;" style="rounded=0;whiteSpace=wrap;html=1;align=left;" parent="1" vertex="1">
          <mxGeometry x="320" y="60" width="180" height="80" as="geometry" />
        </mxCell>
        <mxCell id="s_FSHptF3gGW9Kq1OmkB-45" value="+ startLevel (index : int) Level*&lt;div&gt;+ restartCurrentLevel()&lt;/div&gt;&lt;div&gt;+ gameOver()&lt;/div&gt;" style="rounded=0;whiteSpace=wrap;html=1;align=left;" parent="1" vertex="1">
          <mxGeometry x="320" y="140" width="180" height="80" as="geometry" />
        </mxCell>
        <mxCell id="s_FSHptF3gGW9Kq1OmkB-71" style="edgeStyle=orthogonalEdgeStyle;rounded=0;orthogonalLoop=1;jettySize=auto;html=1;entryX=0.5;entryY=0;entryDx=0;entryDy=0;endSize=15;endArrow=block;endFill=1;dashed=1;" parent="1" source="s_FSHptF3gGW9Kq1OmkB-46" target="s_FSHptF3gGW9Kq1OmkB-54" edge="1">
          <mxGeometry relative="1" as="geometry" />
        </mxCell>
        <mxCell id="s_FSHptF3gGW9Kq1OmkB-46" value="+ initialize (levelData : LevelData)&lt;div&gt;+ start()&lt;/div&gt;&lt;div&gt;+ restart()&lt;/div&gt;&lt;div&gt;+ getPacman() : Pacman&lt;/div&gt;" style="rounded=0;whiteSpace=wrap;html=1;align=left;" parent="1" vertex="1">
          <mxGeometry x="680" y="140" width="200" height="80" as="geometry" />
        </mxCell>
        <mxCell id="s_FSHptF3gGW9Kq1OmkB-74" style="edgeStyle=orthogonalEdgeStyle;rounded=0;orthogonalLoop=1;jettySize=auto;html=1;exitX=0;exitY=0.25;exitDx=0;exitDy=0;entryX=1;entryY=0.25;entryDx=0;entryDy=0;endArrow=diamondThin;endFill=0;endSize=15;" parent="1" source="s_FSHptF3gGW9Kq1OmkB-47" target="s_FSHptF3gGW9Kq1OmkB-44" edge="1">
          <mxGeometry relative="1" as="geometry" />
        </mxCell>
        <mxCell id="s_FSHptF3gGW9Kq1OmkB-47" value="- ghost : ArrayList&lt;div&gt;- pacman : Pacman&lt;/div&gt;&lt;div&gt;- duration : float = 0.0f&lt;/div&gt;" style="rounded=0;whiteSpace=wrap;html=1;align=left;" parent="1" vertex="1">
          <mxGeometry x="680" y="60" width="200" height="80" as="geometry" />
        </mxCell>
        <mxCell id="s_FSHptF3gGW9Kq1OmkB-48" value="Level" style="rounded=0;whiteSpace=wrap;html=1;" parent="1" vertex="1">
          <mxGeometry x="680" y="20" width="200" height="40" as="geometry" />
        </mxCell>
        <mxCell id="s_FSHptF3gGW9Kq1OmkB-49" value="+ spawn()" style="rounded=0;whiteSpace=wrap;html=1;align=left;" parent="1" vertex="1">
          <mxGeometry x="320" y="410" width="180" height="80" as="geometry" />
        </mxCell>
        <mxCell id="s_FSHptF3gGW9Kq1OmkB-50" value="# x : float&lt;div&gt;# y : float&lt;/div&gt;" style="rounded=0;whiteSpace=wrap;html=1;align=left;" parent="1" vertex="1">
          <mxGeometry x="320" y="330" width="180" height="80" as="geometry" />
        </mxCell>
        <mxCell id="s_FSHptF3gGW9Kq1OmkB-51" value="&lt;i&gt;GameObject&lt;/i&gt;" style="rounded=0;whiteSpace=wrap;html=1;" parent="1" vertex="1">
          <mxGeometry x="320" y="290" width="180" height="40" as="geometry" />
        </mxCell>
        <mxCell id="s_FSHptF3gGW9Kq1OmkB-53" value="+ numGhost : int&lt;div&gt;+ duration : float&lt;/div&gt;&lt;div&gt;+ spawnX : float&lt;/div&gt;&lt;div&gt;+ spawnY : float&lt;/div&gt;" style="rounded=0;whiteSpace=wrap;html=1;align=left;" parent="1" vertex="1">
          <mxGeometry x="680" y="320" width="180" height="120" as="geometry" />
        </mxCell>
        <mxCell id="s_FSHptF3gGW9Kq1OmkB-54" value="LevelData" style="rounded=0;whiteSpace=wrap;html=1;" parent="1" vertex="1">
          <mxGeometry x="680" y="280" width="180" height="40" as="geometry" />
        </mxCell>
        <mxCell id="s_FSHptF3gGW9Kq1OmkB-56" value="Waiting&lt;div&gt;Seeking&lt;/div&gt;&lt;div&gt;Retreating&lt;/div&gt;&lt;div&gt;Dead&lt;/div&gt;" style="rounded=0;whiteSpace=wrap;html=1;align=left;" parent="1" vertex="1">
          <mxGeometry x="950" y="453" width="180" height="80" as="geometry" />
        </mxCell>
        <mxCell id="s_FSHptF3gGW9Kq1OmkB-57" value="&amp;lt;&amp;lt;Enumeration&amp;gt;&amp;gt;&lt;div&gt;EnemyState&lt;/div&gt;" style="rounded=0;whiteSpace=wrap;html=1;" parent="1" vertex="1">
          <mxGeometry x="950" y="413" width="180" height="40" as="geometry" />
        </mxCell>
        <mxCell id="s_FSHptF3gGW9Kq1OmkB-59" value="Left&lt;div&gt;Right&lt;/div&gt;&lt;div&gt;Up&lt;/div&gt;&lt;div&gt;Down&lt;/div&gt;" style="rounded=0;whiteSpace=wrap;html=1;align=left;" parent="1" vertex="1">
          <mxGeometry x="950" y="610" width="180" height="80" as="geometry" />
        </mxCell>
        <mxCell id="s_FSHptF3gGW9Kq1OmkB-60" value="&amp;lt;&amp;lt;Enumeration&amp;gt;&amp;gt;&lt;div&gt;PacmanDirection&lt;/div&gt;" style="rounded=0;whiteSpace=wrap;html=1;" parent="1" vertex="1">
          <mxGeometry x="950" y="570" width="180" height="40" as="geometry" />
        </mxCell>
        <mxCell id="s_FSHptF3gGW9Kq1OmkB-61" value="+ changeDirection (dir : PacmanDirection)&lt;div&gt;+ PowerUp()&lt;/div&gt;" style="rounded=0;whiteSpace=wrap;html=1;align=left;" parent="1" vertex="1">
          <mxGeometry x="460" y="670" width="230" height="80" as="geometry" />
        </mxCell>
        <mxCell id="s_FSHptF3gGW9Kq1OmkB-62" value="- poweredUp : bool = false&lt;div&gt;- direction : PacmanDirection&lt;/div&gt;" style="rounded=0;whiteSpace=wrap;html=1;align=left;" parent="1" vertex="1">
          <mxGeometry x="460" y="590" width="230" height="80" as="geometry" />
        </mxCell>
        <mxCell id="s_FSHptF3gGW9Kq1OmkB-68" style="edgeStyle=orthogonalEdgeStyle;rounded=0;orthogonalLoop=1;jettySize=auto;html=1;entryX=0.5;entryY=1;entryDx=0;entryDy=0;endArrow=block;endFill=0;endSize=15;" parent="1" source="s_FSHptF3gGW9Kq1OmkB-63" target="s_FSHptF3gGW9Kq1OmkB-49" edge="1">
          <mxGeometry relative="1" as="geometry">
            <Array as="points">
              <mxPoint x="600" y="530" />
              <mxPoint x="410" y="530" />
            </Array>
          </mxGeometry>
        </mxCell>
        <mxCell id="s_FSHptF3gGW9Kq1OmkB-73" style="edgeStyle=orthogonalEdgeStyle;rounded=0;orthogonalLoop=1;jettySize=auto;html=1;exitX=0.75;exitY=0;exitDx=0;exitDy=0;entryX=0;entryY=0.25;entryDx=0;entryDy=0;endArrow=diamondThin;endFill=1;endSize=15;" parent="1" source="s_FSHptF3gGW9Kq1OmkB-63" target="s_FSHptF3gGW9Kq1OmkB-46" edge="1">
          <mxGeometry relative="1" as="geometry" />
        </mxCell>
        <mxCell id="s_FSHptF3gGW9Kq1OmkB-63" value="&amp;lt;&amp;lt;GameObject&amp;gt;&amp;gt;&lt;div&gt;Pacman&lt;/div&gt;" style="rounded=0;whiteSpace=wrap;html=1;" parent="1" vertex="1">
          <mxGeometry x="460" y="550" width="230" height="40" as="geometry" />
        </mxCell>
        <mxCell id="s_FSHptF3gGW9Kq1OmkB-64" value="+ changeState (state : EnemyState)&lt;div&gt;+ IsDead() : bool&lt;/div&gt;" style="rounded=0;whiteSpace=wrap;html=1;align=left;" parent="1" vertex="1">
          <mxGeometry x="170" y="670" width="200" height="80" as="geometry" />
        </mxCell>
        <mxCell id="s_FSHptF3gGW9Kq1OmkB-65" value="- health : int&lt;div&gt;- state : EnemyState&lt;/div&gt;" style="rounded=0;whiteSpace=wrap;html=1;align=left;" parent="1" vertex="1">
          <mxGeometry x="170" y="590" width="200" height="80" as="geometry" />
        </mxCell>
        <mxCell id="s_FSHptF3gGW9Kq1OmkB-67" style="edgeStyle=orthogonalEdgeStyle;rounded=0;orthogonalLoop=1;jettySize=auto;html=1;entryX=0.5;entryY=1;entryDx=0;entryDy=0;endArrow=block;endFill=0;endSize=15;" parent="1" source="s_FSHptF3gGW9Kq1OmkB-66" target="s_FSHptF3gGW9Kq1OmkB-49" edge="1">
          <mxGeometry relative="1" as="geometry">
            <Array as="points">
              <mxPoint x="260" y="530" />
              <mxPoint x="410" y="530" />
            </Array>
          </mxGeometry>
        </mxCell>
        <mxCell id="s_FSHptF3gGW9Kq1OmkB-69" style="edgeStyle=orthogonalEdgeStyle;rounded=0;orthogonalLoop=1;jettySize=auto;html=1;entryX=0;entryY=0.75;entryDx=0;entryDy=0;endArrow=diamondThin;endFill=1;endSize=15;" parent="1" source="s_FSHptF3gGW9Kq1OmkB-66" target="s_FSHptF3gGW9Kq1OmkB-47" edge="1">
          <mxGeometry relative="1" as="geometry">
            <Array as="points">
              <mxPoint x="210" y="260" />
              <mxPoint x="580" y="260" />
              <mxPoint x="580" y="120" />
            </Array>
          </mxGeometry>
        </mxCell>
        <mxCell id="s_FSHptF3gGW9Kq1OmkB-66" value="&amp;lt;&amp;lt;GameObject&amp;gt;&amp;gt;&lt;br&gt;Ghost" style="rounded=0;whiteSpace=wrap;html=1;" parent="1" vertex="1">
          <mxGeometry x="170" y="550" width="200" height="40" as="geometry" />
        </mxCell>
        <mxCell id="s_FSHptF3gGW9Kq1OmkB-75" value="1" style="text;html=1;align=center;verticalAlign=middle;resizable=0;points=[];autosize=1;strokeColor=none;fillColor=none;fontSize=15;" parent="1" vertex="1">
          <mxGeometry x="635" y="520" width="30" height="30" as="geometry" />
        </mxCell>
        <mxCell id="s_FSHptF3gGW9Kq1OmkB-76" value="1" style="text;html=1;align=center;verticalAlign=middle;resizable=0;points=[];autosize=1;strokeColor=none;fillColor=none;fontSize=15;" parent="1" vertex="1">
          <mxGeometry x="500" y="50" width="30" height="30" as="geometry" />
        </mxCell>
        <mxCell id="s_FSHptF3gGW9Kq1OmkB-77" value="1" style="text;html=1;align=center;verticalAlign=middle;resizable=0;points=[];autosize=1;strokeColor=none;fillColor=none;fontSize=15;" parent="1" vertex="1">
          <mxGeometry x="650" y="85" width="30" height="30" as="geometry" />
        </mxCell>
        <mxCell id="s_FSHptF3gGW9Kq1OmkB-78" value="1" style="text;html=1;align=center;verticalAlign=middle;resizable=0;points=[];autosize=1;strokeColor=none;fillColor=none;fontSize=15;" parent="1" vertex="1">
          <mxGeometry x="650" y="130" width="30" height="30" as="geometry" />
        </mxCell>
        <mxCell id="s_FSHptF3gGW9Kq1OmkB-79" value="*" style="text;html=1;align=center;verticalAlign=middle;resizable=0;points=[];autosize=1;strokeColor=none;fillColor=none;fontSize=15;" parent="1" vertex="1">
          <mxGeometry x="180" y="520" width="30" height="30" as="geometry" />
        </mxCell>
        <mxCell id="s_FSHptF3gGW9Kq1OmkB-80" value="10" style="text;html=1;align=center;verticalAlign=middle;resizable=0;points=[];autosize=1;strokeColor=none;fillColor=none;fontSize=15;" parent="1" vertex="1">
          <mxGeometry x="640" y="50" width="40" height="30" as="geometry" />
        </mxCell>
        <mxCell id="s_FSHptF3gGW9Kq1OmkB-81" value="contains" style="text;html=1;align=center;verticalAlign=middle;resizable=0;points=[];autosize=1;strokeColor=none;fillColor=none;fontSize=15;" parent="1" vertex="1">
          <mxGeometry x="544.5" y="50" width="80" height="30" as="geometry" />
        </mxCell>
      </root>
    </mxGraphModel>
  </diagram>
</mxfile>
